# xmcd
#
# Track frame offsets:
#	150
#	19394
#	37080
#	53409
#	71802
#	87177
#	100644
#	113867
#	127233
#	145912
#	166886
#	184801
#	204323
#	217842
#	231320
#	249986
#
# Disc length: 3502 seconds
#
# Revision: 0
# Processed by: cddbd v1.5.2PL0 Copyright (c) Steve Scherf et al.
# Submitted via: EasyCDDAExtractor 16.0.6.1
#
DISCID=e00dac10
DTITLE=Συλλογικός δίσκος - Το ρεμπέτικο τραγούδι στην Αμερική 3
DYEAR=2009
DGENRE=Ρεμπέτικη
TTITLE0=Τσορός Παναγιώτης - Ντούρου [1929, παραδοσιακό]
TTITLE1=Παπαγκίκα Μαρίκα - Ο κουμπούρας απ' τη Βάθη [1922, παραδοσιακό]
TTITLE2=Άνευ ερμηνευτού - Βλάχικο χασάπικο [1921, παραδ., χορ. μαντολινάτα Ιερ
TTITLE2=όθ. Σχίζα]
TTITLE3=Δημητριάδης Τέτος - Μισιρλού [1927, Νίκου Ρουμπάνη]
TTITLE4=Βάκα Αμαλία - Παραμάννα κούνα κούνα [1927, παραδοσιακό]
TTITLE5=Μελκόν Μάρκος - Μέσ' στην Αθήνα τριγυρνάς [1940, Κώστα Σκαρβέλη]
TTITLE6=Άνευ ερμηνευτού - Ο μουρμούρης [1939, Χρήστου Μαρίνου, Τρίο Κώστα Γκαν
TTITLE6=τίνη]
TTITLE7=Βάκα Αμαλία - Μ' είπες να γίνω μάγκας [1948, παραδοσιακό]
TTITLE8=Κατσαρός Γιώργος - Μ' ένα καφετζή πλεγμένη [1936, παραδοσιακό]
TTITLE9=Χαλκιάς Ιωάννης ή Jack Gregory - Μουρμούρικο ζεϊμπέκικο [1933, παραδοσ
TTITLE9=ιακό]
TTITLE10=Μπέζος Κώστας ή Κωστής Α. - Ήσουνα ξυπόλητη [1930, παραδοσιακό]
TTITLE11=Δούσας Κώστας - Ο ιππότης [1937, Σπύρου Περιστέρη]
TTITLE12=Κατσαρός Γιώργος - Ο Βαγγέλης ο μπεκρής [1938, Δ. Τσακίρη-Ρ. Αμπατζή]
TTITLE13=Νικολάου Τάκης - Μέσ' στον τεκέ της Μαριγώς [1934, Σπύρου Γεωργιάδη]
TTITLE14=Δούσας Κώστας - Το πλυσταριό [1937, παραδοσιακό]
TTITLE15=Κατσαρός Γιώργος - Βρε μάγκα το μαχαίρι σου [1936, Ανέστη Δελλιά]
EXTD=
EXTT0=
EXTT1=
EXTT2=
EXTT3=
EXTT4=
EXTT5=
EXTT6=
EXTT7=
EXTT8=
EXTT9=
EXTT10=
EXTT11=
EXTT12=
EXTT13=
EXTT14=
EXTT15=
PLAYORDER=
